<?xml version="1.0" encoding="UTF-8"?><svg id="Layer_2" xmlns="http://www.w3.org/2000/svg" viewBox="0 0 552.5 562.86"><defs><style>.cls-1{fill:#003895;}.cls-2{fill:#ffca00;}.cls-3{fill:#cf1920;}</style></defs><g id="Layer_1-2"><g><g><circle class="cls-1" cx="382.07" cy="286.11" r="32.56"/><path class="cls-1" d="M419.64,361.9v54.94c-24.8,15.59-49.87,29.72-75.1,35.78-.02-.5-.03-1-.03-1.5v-89.22c0-20.74,16.81-37.57,37.57-37.57,10.38,0,19.77,4.2,26.57,11.01,6.8,6.8,11,16.18,11,26.55Z"/><path class="cls-1" d="M429.48,280.27c0-4.86-3.94-8.8-8.8-8.8s-8.8,3.94-8.8,8.8c0,1.83,.56,3.52,1.51,4.93h0s7.62,11.29,3.53,27.52c0,0,11.96-17.34,12.57-32.44Z"/><path class="cls-1" d="M334.09,280.27c0-4.86,3.94-8.8,8.8-8.8s8.8,3.94,8.8,8.8c0,1.83-.56,3.52-1.51,4.93h0s-7.62,11.29-3.53,27.52c0,0-11.96-17.34-12.57-32.44Z"/></g><g><circle class="cls-1" cx="291.14" cy="279.4" r="35.03"/><path class="cls-1" d="M331.56,360.94v69.13c-.45-.46-.91-.89-1.39-1.31-23.27-19.98-51.06-30.53-79.43-38.55v-29.27c0-22.32,18.09-40.42,40.4-40.42,11.17,0,21.27,4.53,28.58,11.84,7.31,7.31,11.84,17.41,11.84,28.58Z"/></g><g><path class="cls-2" d="M238.09,276.87v108.62c-5.37-1.39-10.74-2.75-16.09-4.1-9.45-2.37-19.22-4.82-28.65-7.49-1.69-.48-3.36-.95-5.01-1.41-16.78-4.72-31.27-10.11-50.26-19.8-3.98-2.03-8.62-4.97-13.54-8.24v-67.59c0-31.35,25.42-56.77,56.77-56.77,15.68,0,29.87,6.35,40.15,16.62s16.64,24.47,16.64,40.15Z"/><path class="cls-2" d="M230.34,163.08c.11-1.35,.18-2.71,.18-4.09,0-27.18-22.03-49.21-49.21-49.21s-49.21,22.03-49.21,49.21c0,1.38,.07,2.74,.18,4.09,.07,8.78-1.62,28.63-18.39,28.63,0,0,25.75,20.75,67.42,20.75s67.42-20.75,67.42-20.75c-16.78,0-18.47-19.85-18.39-28.63Z"/></g><g><path class="cls-3" d="M537.66,368.44c-35.68,124.12-136.61,194.42-264.63,194.42-104.79,0-201.32-64.65-250.64-162.01C-4.03,348.67-4.26,285.19,7.27,227.59c8.67-43.29,23.05-75.66,61.23-129.61-32.83,68.42-24.12,151.1,15.68,215.22,8.54,13.76,18.14,26.35,30.96,36.34,12.33,9.6,26.04,17.42,40.57,23.14,30.77,12.12,63.54,18.1,94.91,28.43,.34,.11,.67,.22,1.01,.33,17.68,5.89,34.88,11.59,51.52,19.98,8.66,4.37,20.25,12.09,21.25,22.97,.42,4.54-1.1,9.22-4.46,12.34-7.44,6.91-19.98,5.99-29.39,5.99-9.11,0-19.26-.66-30.28-2.38-1.02-.15-2.06-.31-3.11-.5-1.66-.28-3.35-.6-5.06-.93-.78-.15-1.58-.31-2.4-.48-1.5-.31-3.03-.64-4.56-1.01-2.37-.53-4.77-1.12-7.22-1.77-.3-.08-.59-.17-.9-.25-2.06-.55-4.15-1.14-6.26-1.77s-4.26-1.31-6.4-2.02c-1.79-.6-3.6-1.21-5.43-1.87-.72-.25-1.42-.51-2.14-.78-2.14-.79-4.31-1.62-6.48-2.48-5.09-2.03-10.29-4.3-15.57-6.81-2.27-1.07-4.55-2.2-6.85-3.37-5.36-2.74-10.84-5.73-16.37-9.02-1.3-.78-2.59-1.55-3.89-2.35-1.87-1.14-3.76-2.33-5.67-3.54,.38,.38,3.6,3.45,9.35,7.95,.77,.59,1.57,1.22,2.43,1.87,2.56,1.93,5.52,4.07,8.85,6.31,1.12,.74,2.27,1.5,3.47,2.28,1.79,1.16,3.68,2.33,5.65,3.52,.66,.4,1.33,.79,2,1.19,1.36,.79,2.77,1.59,4.19,2.4,.72,.4,1.46,.79,2.19,1.19,2.21,1.19,4.5,2.38,6.88,3.57,3.6,1.79,7.39,3.52,11.36,5.21,10.68,4.51,22.68,8.53,35.84,11.35,12.2,2.63,25.4,4.21,39.47,4.21,9.76,0,19.96-.76,30.51-2.5,2-.33,4-.68,6.03-1.07,1.58-.31,3.18-.64,4.79-1.01,1.46-.31,2.93-.66,4.4-1.02,.96-.23,1.92-.48,2.88-.73,1.62-.43,3.27-.88,4.9-1.34,.83-.25,1.65-.48,2.48-.73,1.65-.5,3.3-1.02,4.96-1.57,2.51-.81,5.03-1.69,7.56-2.63,2.53-.93,5.07-1.92,7.63-2.97,1.71-.69,3.43-1.42,5.14-2.18,2.59-1.14,5.19-2.33,7.8-3.59,2.61-1.26,5.23-2.58,7.87-3.97,1.76-.93,3.54-1.88,5.3-2.88,1.78-.97,3.55-2,5.35-3.04,.88-.53,1.78-1.06,2.67-1.59,1.39-.84,2.78-1.7,4.19-2.58,13-8.11,26.28-17.88,39.82-29.52,1.87-1.6,3.76-3.26,5.63-4.94,.94-.83,1.89-1.69,2.83-2.55,9.26-8.43,18.09-17.32,26.27-26.8,7.09-8.22,13.38-17.78,22.11-24.35,7.3-5.49,16.86-8.46,24.97-3.02,7.28,4.88,10.31,14.18,7.91,22.51Z"/><path class="cls-3" d="M200.09,448.14c2.21,1.21,4.5,2.4,6.88,3.57-2.39-1.19-4.67-2.38-6.88-3.57Zm18.84,1.64c1.82,.66,3.63,1.27,5.43,1.87v-.02c-1.79-.58-3.6-1.21-5.43-1.85Zm-18.84-1.64c2.21,1.21,4.5,2.4,6.88,3.57-2.39-1.19-4.67-2.38-6.88-3.57Zm24.26,3.49c-1.79-.58-3.6-1.21-5.43-1.85,1.82,.66,3.63,1.27,5.43,1.87,2.15,.71,4.29,1.39,6.4,2.02-2.11-.64-4.26-1.32-6.4-2.03Z"/></g><g><path class="cls-3" d="M85.55,88.39c-1.37-1.41-2.05-2.7-2.03-3.87,.02-1.18,.56-2.28,1.63-3.32l8.97-8.73c2.33-2.26,4.48-2.38,6.47-.33,1.97,2.03,1.8,4.18-.53,6.44l-5.83,5.67,5.43,5.58,4.69-4.56c2.1-2.04,4.04-2.15,5.81-.32,1.78,1.83,1.62,3.76-.48,5.8l-4.69,4.56,8.28,8.51c1.24,1.27,1.84,2.48,1.81,3.63-.03,1.15-.56,2.22-1.59,3.22-1,.97-2.07,1.45-3.2,1.44-1.13-.01-2.32-.66-3.56-1.93l-21.19-21.78Z"/><path class="cls-3" d="M107.47,66.79c-1.06-1.42-1.51-2.7-1.34-3.84,.16-1.14,.81-2.13,1.95-2.98,1.15-.86,2.29-1.2,3.42-1.03,1.13,.17,2.22,.97,3.29,2.39l12.27,16.43c1.63,2.18,3.09,3.36,4.39,3.54,1.3,.18,2.54-.16,3.7-1.03,1.13-.85,1.8-1.92,1.98-3.21,.19-1.29-.53-3.03-2.16-5.21l-12.27-16.43c-1.06-1.42-1.51-2.7-1.36-3.83,.16-1.13,.8-2.12,1.94-2.97s2.27-1.19,3.42-1.03c1.14,.16,2.25,.95,3.31,2.37l12.51,16.74c2.25,3.01,3.56,5.79,3.94,8.35,.38,2.56,.02,4.87-1.07,6.95-1.09,2.07-2.7,3.91-4.83,5.5-2.15,1.6-4.38,2.64-6.69,3.11-2.31,.47-4.64,.16-6.99-.93-2.35-1.09-4.64-3.14-6.89-6.15l-12.51-16.74Z"/><path class="cls-3" d="M139.72,44.35c-.99-1.83-1.25-3.34-.8-4.53,.45-1.19,1.3-2.11,2.53-2.77,1.31-.71,2.69-.86,4.13-.45,1.44,.4,3.23,1.48,5.37,3.22l14.77,10.9-8.63-16.04c-.9-1.68-1.18-3.08-.83-4.2,.35-1.12,1.09-1.99,2.22-2.6,1.08-.58,2.17-.7,3.25-.35,1.09,.35,2.08,1.36,2.99,3.04l14.31,26.58c1,1.86,1.31,3.37,.91,4.53-.4,1.16-1.21,2.07-2.44,2.73-1.31,.71-2.71,.88-4.19,.52s-3.29-1.42-5.44-3.18l-14.81-10.91,8.62,16.01c.92,1.71,1.2,3.13,.84,4.25-.36,1.12-1.09,1.97-2.19,2.56-1.1,.59-2.19,.71-3.28,.36-1.09-.35-2.08-1.36-2.99-3.04l-14.33-26.63Z"/><path class="cls-3" d="M175.44,26.23c-.66-1.85-.75-3.3-.26-4.36,.49-1.06,1.45-1.84,2.87-2.35l6.32-2.27c5.4-1.94,10.13-1.9,14.2,.11,4.06,2.01,7.18,6.04,9.34,12.08l.58,1.63c2.16,6.02,2.32,11.11,.47,15.27-1.85,4.15-5.48,7.2-10.88,9.14l-6.37,2.28c-1.4,.5-2.63,.51-3.67,0-1.04-.5-1.89-1.67-2.56-3.52l-10.05-28.02Zm24.22,7.8l-.44-1.23c-1.32-3.68-2.96-6.07-4.92-7.19-1.96-1.11-4.37-1.16-7.21-.14l-2.05,.74,7.87,21.94,2.05-.74c2.84-1.02,4.67-2.59,5.47-4.7,.81-2.11,.55-5.01-.77-8.69Z"/><path class="cls-3" d="M219.14,12.49c.15-2.17,.69-3.8,1.62-4.88,.92-1.08,2.26-1.81,4-2.16,1.72-.35,3.22-.22,4.49,.4,1.27,.62,2.41,1.91,3.41,3.88l13.89,26.39c1.01,1.93,1.24,3.57,.67,4.92-.56,1.35-1.81,2.22-3.73,2.61-1.3,.26-2.38,.11-3.26-.45-.88-.56-1.59-1.43-2.14-2.61l-2.03-4.01-9.69,1.98-.33,4.49c-.05,1.28-.34,2.35-.89,3.22-.55,.86-1.46,1.42-2.73,1.69-1.89,.38-3.35,.07-4.4-.95-1.05-1.02-1.49-2.61-1.34-4.79l2.46-29.72Zm13.8,17.19l-5.7-11.47-.71,12.78,6.41-1.31Z"/><path class="cls-3" d="M252.51,34.48c-1.48-2.71-2.36-6.28-2.63-10.71l-.24-3.84c-.27-4.43,.16-8.08,1.29-10.95,1.13-2.87,2.81-5.03,5.05-6.48,2.24-1.45,4.87-2.27,7.91-2.46,3.99-.25,7.18,.61,9.56,2.56,2.38,1.95,3.75,4.73,4.1,8.32,.35,3.61-.97,5.51-3.96,5.69-1.26,.08-2.22-.2-2.86-.83-.65-.63-1.16-1.56-1.53-2.79-.37-1.43-.94-2.47-1.71-3.1-.77-.63-1.82-.91-3.16-.83-1.92,.12-3.36,.96-4.31,2.52-.95,1.56-1.31,4.27-1.08,8.11l.19,3.14c.24,3.86,.93,6.51,2.08,7.94,1.15,1.43,2.69,2.09,4.63,1.97,1.45-.09,2.52-.49,3.2-1.19,.69-.7,1.11-1.69,1.28-2.97,.31-1.15,.74-2.04,1.31-2.66,.57-.62,1.48-.97,2.74-1.05,1.3-.08,2.35,.3,3.16,1.14,.81,.84,1.23,2.16,1.26,3.95,.07,3.23-.94,5.94-3.03,8.13-2.09,2.19-5.18,3.41-9.27,3.66-3.05,.19-5.78-.3-8.18-1.47-2.4-1.17-4.34-3.1-5.82-5.81Z"/><path class="cls-3" d="M286.95,5.08c.08-1.77,.54-3.05,1.38-3.82,.84-.77,1.97-1.13,3.41-1.07,1.42,.06,2.51,.52,3.28,1.37,.77,.85,1.12,2.16,1.04,3.93l-1.4,30.98c-.08,1.77-.54,3.04-1.39,3.81-.85,.77-1.98,1.12-3.39,1.05-1.43-.06-2.53-.52-3.3-1.35-.77-.84-1.11-2.14-1.03-3.92l1.4-30.98Z"/><path class="cls-3" d="M315.53,44.24c-2.93-.46-5.44-1.53-7.55-3.2s-3.61-3.99-4.5-6.97c-.9-2.97-1-6.64-.3-11l.6-3.8c.69-4.36,1.92-7.82,3.7-10.37,1.77-2.55,3.92-4.29,6.44-5.23,2.52-.94,5.24-1.18,8.17-.71,2.95,.47,5.47,1.54,7.58,3.21s3.61,3.99,4.5,6.97c.9,2.97,1,6.64,.3,11l-.6,3.8c-.69,4.35-1.92,7.8-3.69,10.35-1.77,2.56-3.92,4.31-6.44,5.24-2.52,.94-5.25,1.17-8.2,.71Zm9.68-21.23c.6-3.8,.49-6.53-.34-8.18-.83-1.65-2.23-2.63-4.21-2.95-1.96-.31-3.59,.19-4.9,1.5-1.31,1.31-2.26,3.87-2.87,7.67l-.5,3.13c-.6,3.8-.49,6.53,.35,8.19,.84,1.65,2.23,2.63,4.19,2.94,1.97,.31,3.61-.19,4.91-1.5,1.3-1.31,2.25-3.87,2.85-7.68l.5-3.13Z"/><path class="cls-3" d="M347.07,13.86c.63-1.98,1.54-3.21,2.71-3.71,1.17-.5,2.42-.53,3.75-.11,1.42,.46,2.49,1.34,3.19,2.66,.71,1.32,1.18,3.35,1.4,6.1l2.4,18.2,5.56-17.34c.58-1.82,1.4-2.99,2.45-3.51,1.05-.53,2.19-.59,3.41-.2,1.17,.37,2.01,1.07,2.51,2.1s.46,2.44-.12,4.26l-9.22,28.75c-.65,2.01-1.52,3.28-2.63,3.8-1.11,.52-2.33,.56-3.66,.14-1.42-.46-2.51-1.34-3.28-2.66-.77-1.32-1.26-3.36-1.49-6.13l-2.42-18.23-5.55,17.31c-.59,1.85-1.42,3.04-2.48,3.55-1.06,.51-2.18,.58-3.37,.2-1.19-.38-2.03-1.08-2.54-2.11-.5-1.02-.47-2.44,.12-4.26l9.23-28.8Z"/><path class="cls-3" d="M396.95,33.19c1.15-2.02,2.41-3.21,3.76-3.57,1.35-.37,2.78-.12,4.29,.75,1.33,.76,2.23,1.79,2.71,3.1,.48,1.31,.42,3.17-.18,5.59l-2.82,15.29,11.74-10.18c1.81-1.75,3.39-2.74,4.76-2.98,1.37-.24,2.71,.02,4.01,.77,1.52,.87,2.47,1.99,2.84,3.34,.37,1.35-.03,3.05-1.2,5.08l-14.79,25.8c-.87,1.52-1.84,2.43-2.91,2.71-1.07,.28-2.16,.1-3.29-.55-1.13-.65-1.86-1.5-2.19-2.56-.33-1.06-.05-2.36,.83-3.9l9.73-16.98-10.9,9.45c-.91,.87-1.78,1.44-2.6,1.72-.82,.28-1.68,.16-2.56-.34-.87-.5-1.39-1.17-1.56-2-.17-.84-.12-1.88,.17-3.14l2.55-14.14-9.69,16.9c-.88,1.54-1.86,2.44-2.94,2.69-1.08,.25-2.19,.05-3.32-.59-1.12-.64-1.82-1.49-2.11-2.55-.29-1.06,0-2.35,.87-3.88l14.8-25.82Z"/><path class="cls-3" d="M442.27,61.05c1.77-1.26,3.37-1.88,4.8-1.85,1.43,.02,2.83,.59,4.21,1.71,1.36,1.1,2.21,2.34,2.55,3.72,.33,1.37,.05,3.08-.83,5.1l-11.54,27.49c-.85,2.01-1.97,3.23-3.37,3.65-1.4,.42-2.86,.02-4.39-1.22-1.03-.83-1.6-1.76-1.72-2.8-.12-1.03,.1-2.14,.66-3.31l1.8-4.12-7.68-6.22-3.67,2.6c-1.02,.78-2.03,1.23-3.05,1.36-1.01,.13-2.03-.22-3.04-1.04-1.5-1.21-2.18-2.55-2.06-4,.12-1.46,1.07-2.81,2.84-4.08l24.51-17Zm-4.49,21.58l5.23-11.69-10.32,7.57,5.09,4.12Z"/><path class="cls-3" d="M453.13,91.97l2.83-2.62c3.27-3.03,6.38-4.99,9.35-5.89,2.96-.9,5.75-.91,8.35-.03,2.6,.87,4.95,2.45,7.06,4.72,1.69,1.83,2.9,3.72,3.62,5.68,.72,1.96,.96,3.82,.73,5.58-.23,1.76-.96,3.26-2.19,4.5-.93,.91-2,1.42-3.19,1.53-1.2,.11-2.26-.33-3.17-1.31-.99-1.07-1.28-2.41-.87-4.02,.32-1.04,.37-2.03,.14-2.97-.23-.94-.81-1.91-1.74-2.92-1.37-1.48-3.02-2.14-4.93-1.98-1.91,.16-4.28,1.55-7.1,4.17l-2.31,2.14c-2.87,2.66-4.55,4.98-5.06,6.95-.51,1.98-.03,3.76,1.45,5.36,2.34,2.52,4.94,2.45,7.8-.21l1.12-1.04-1.52-1.64c-.85-.91-1.28-1.86-1.29-2.82-.01-.97,.43-1.87,1.33-2.71,1.87-1.73,3.79-1.53,5.77,.6l3.62,3.91c2.21,2.38,2.09,4.71-.37,6.98l-2.26,2.1c-3.74,3.47-7.32,5.21-10.74,5.24s-6.65-1.6-9.7-4.88c-3.25-3.5-4.68-7.37-4.31-11.59s2.89-8.49,7.56-12.82Z"/><path class="cls-3" d="M477.51,119.06l3.18-2.18c3.67-2.52,7.04-4.01,10.11-4.46,3.07-.45,5.82-.06,8.26,1.18,2.44,1.24,4.54,3.14,6.29,5.69,1.41,2.06,2.33,4.1,2.76,6.15,.43,2.04,.4,3.92-.09,5.63-.49,1.71-1.43,3.08-2.82,4.13-1.05,.77-2.18,1.12-3.38,1.05-1.2-.07-2.18-.65-2.94-1.76-.82-1.2-.91-2.57-.27-4.1,.47-.99,.66-1.96,.57-2.92-.08-.96-.52-2.01-1.3-3.15-1.14-1.67-2.67-2.56-4.58-2.68-1.91-.12-4.46,.91-7.63,3.09l-2.59,1.78c-3.22,2.21-5.23,4.26-6.02,6.14-.79,1.88-.57,3.72,.66,5.51,1.94,2.83,4.53,3.15,7.75,.93l1.26-.87-1.27-1.84c-.71-1.03-.99-2.02-.86-2.98,.13-.96,.7-1.79,1.71-2.48,2.1-1.44,3.97-.96,5.62,1.43l3.01,4.39c1.84,2.68,1.38,4.96-1.38,6.85l-2.54,1.75c-4.2,2.88-8,4.09-11.39,3.62-3.39-.47-6.35-2.55-8.88-6.24-2.7-3.94-3.56-7.97-2.58-12.09,.98-4.12,4.1-7.98,9.35-11.58Z"/><path class="cls-3" d="M512.98,141.85c1.56-.84,2.89-1.1,3.99-.78,1.09,.32,1.98,1.11,2.66,2.38,.67,1.25,.84,2.42,.51,3.52-.33,1.1-1.28,2.07-2.84,2.91l-27.31,14.69c-1.56,.84-2.89,1.09-3.98,.76s-1.97-1.13-2.64-2.37c-.68-1.26-.86-2.44-.53-3.53,.33-1.09,1.27-2.05,2.83-2.89l27.31-14.69Z"/><path class="cls-3" d="M521.33,159.09c1.81-.77,3.25-.93,4.34-.5,1.09,.43,1.92,1.34,2.51,2.74l4.93,11.66c1.27,2.99,.59,5.04-2.04,6.15-2.61,1.1-4.55,.16-5.81-2.83l-3.26-7.69-6.86,2.9,2.64,6.23c1.14,2.69,.54,4.54-1.81,5.53-2.35,.99-4.09,.14-5.23-2.55l-2.64-6.23-7.8,3.3,3.28,7.75c1.26,2.97,.58,5.01-2.02,6.12-2.63,1.11-4.57,.18-5.83-2.79l-4.98-11.76c-.58-1.37-.65-2.59-.21-3.66,.44-1.07,1.56-1.98,3.37-2.75l27.41-11.6Z"/><path class="cls-3" d="M537.08,201.3c1.91-.44,3.37-.35,4.36,.27,.99,.62,1.66,1.66,1.99,3.13l1.62,7.07c1.06,4.66,.79,8.44-.82,11.34-1.61,2.9-4.45,4.82-8.52,5.75-4.11,.94-7.5,.44-10.19-1.48-2.69-1.92-4.56-5.21-5.63-9.87l-.66-2.87-9.77,2.23c-1.73,.4-3.08,.29-4.04-.31-.96-.6-1.6-1.59-1.92-2.98-.31-1.36-.17-2.52,.44-3.48,.6-.96,1.77-1.64,3.5-2.03l29.62-6.77Zm-3.33,18.6c1.86-.43,3.06-1.22,3.6-2.38,.54-1.16,.61-2.59,.23-4.28l-.61-2.65-10.3,2.35,.6,2.62c.39,1.69,1.1,2.94,2.14,3.75,1.04,.81,2.49,1,4.34,.58Z"/><path class="cls-3" d="M544.52,239.56c2.14,.37,3.71,1.07,4.69,2.1,.99,1.03,1.57,2.43,1.75,4.19,.18,1.75-.11,3.22-.85,4.43s-2.14,2.2-4.21,3l-27.65,11.15c-2.03,.81-3.68,.87-4.96,.17-1.29-.7-2.03-2.02-2.22-3.98-.13-1.31,.13-2.38,.77-3.19,.65-.81,1.59-1.44,2.81-1.86l4.19-1.62-.99-9.83-4.43-.78c-1.27-.18-2.31-.58-3.11-1.21s-1.27-1.59-1.4-2.89c-.19-1.92,.27-3.34,1.39-4.28,1.12-.94,2.75-1.22,4.9-.85l29.32,5.44Zm-18.49,11.99l11.99-4.51-12.64-2,.66,6.51Z"/><path class="cls-3" d="M547.6,270.6c1.77,.08,3.05,.54,3.82,1.38,.78,.85,1.14,1.98,1.08,3.39-.06,1.43-.51,2.53-1.36,3.3-.84,.77-2.16,1.11-3.93,1.04l-20.48-.88c-2.72-.12-4.56,.27-5.52,1.17-.96,.89-1.48,2.07-1.54,3.52-.06,1.42,.35,2.6,1.24,3.57,.88,.96,2.68,1.5,5.4,1.62l20.49,.88c1.77,.08,3.05,.53,3.83,1.37,.78,.84,1.13,1.96,1.07,3.38s-.51,2.51-1.36,3.3c-.85,.79-2.16,1.14-3.93,1.06l-20.88-.89c-3.75-.16-6.74-.9-8.96-2.23-2.22-1.32-3.79-3.06-4.71-5.22-.92-2.16-1.32-4.56-1.21-7.22,.12-2.68,.72-5.06,1.82-7.15,1.1-2.09,2.81-3.7,5.14-4.83,2.33-1.13,5.37-1.61,9.12-1.45l20.88,.89Z"/><path class="cls-3" d="M544.97,309.43c1.75,.31,2.95,.93,3.61,1.87,.66,.94,.86,2.11,.62,3.5s-.84,2.42-1.78,3.08c-.94,.66-2.29,.83-4.03,.52l-26.55-4.69-1.47,8.31c-.56,3.18-2.29,4.51-5.19,4-2.9-.51-4.07-2.36-3.51-5.54l2.23-12.6c.26-1.49,.88-2.57,1.84-3.24,.96-.67,2.46-.83,4.48-.47l29.76,5.26Z"/></g></g></g></svg>